<svg width="24" height="24" viewBox="0 0 24 24" fill="none" xmlns="http://www.w3.org/2000/svg">
<g id="IMAGE">
<g id="Group">
<g id="Group_2">
<path id="Vector" d="M17.9119 12.4864C17.9119 11.729 17.3228 11.14 16.5654 11.14H14.3774C14.9664 10.5509 15.3031 9.70932 15.3031 8.78361C15.3031 6.9322 13.7883 5.33325 11.8527 5.33325C10.0013 5.33325 8.40234 6.84804 8.40234 8.78361C8.40234 9.70932 8.73896 10.5509 9.32805 11.14H6.63508C5.87768 11.14 5.2886 11.729 5.2886 12.4864L4.61536 18.209C4.61536 18.9664 5.20444 19.5555 5.96184 19.5555H17.1545C17.9119 19.5555 18.501 18.9664 18.501 18.1248L17.9119 12.4864ZM9.32805 8.78361C9.32805 7.35298 10.5062 6.1748 11.9369 6.1748C13.3675 6.1748 14.5457 7.35298 14.5457 8.78361C14.5457 9.87763 13.8724 10.7192 12.9467 11.14C12.6101 11.3083 12.2735 11.3924 11.9369 11.3924C11.6002 11.3924 11.1795 11.3083 10.8428 11.14C9.91713 10.7192 9.32805 9.79348 9.32805 8.78361ZM17.1545 18.7139H15.5555V14.6745H14.714V18.7139H8.48649V14.6745H7.64494V18.7139H6.04599C5.79353 18.7139 5.54106 18.4615 5.54106 18.209L6.13015 12.4864C6.13015 12.1498 6.38261 11.9815 6.63508 11.9815H16.5654C16.8179 11.9815 17.0703 12.234 17.0703 12.5706L17.7436 18.1248C17.7436 18.4615 17.4911 18.7139 17.1545 18.7139Z" fill="white"/>
</g>
</g>
</g>
</svg>
