<svg width="16" height="16" viewBox="0 0 16 16" fill="none" xmlns="http://www.w3.org/2000/svg">
<g id="check_circle_black_24dp (6) 1" clip-path="url(#clip0_1518_4884)">
<path id="Vector" d="M7.99999 1.33325C4.31999 1.33325 1.33333 4.31992 1.33333 7.99992C1.33333 11.6799 4.31999 14.6666 7.99999 14.6666C11.68 14.6666 14.6667 11.6799 14.6667 7.99992C14.6667 4.31992 11.68 1.33325 7.99999 1.33325ZM6.19333 10.8599L3.79999 8.46658C3.53999 8.20658 3.53999 7.78658 3.79999 7.52659C4.05999 7.26658 4.47999 7.26658 4.73999 7.52659L6.66666 9.44658L11.2533 4.85992C11.5133 4.59992 11.9333 4.59992 12.1933 4.85992C12.4533 5.11992 12.4533 5.53992 12.1933 5.79992L7.13333 10.8599C6.87999 11.1199 6.45333 11.1199 6.19333 10.8599Z" fill="#2B7CFF"/>
</g>
<defs>
<clipPath id="clip0_1518_4884">
<rect width="16" height="16" fill="white"/>
</clipPath>
</defs>
</svg>
