<svg width="125" height="30" viewBox="0 0 125 30" fill="none" xmlns="http://www.w3.org/2000/svg">
<rect width="125" height="30" fill="#474545"/>
<g id="Transactions revised web app &#38; tablet design">
<path d="M-2257 -755C-2257 -756.104 -2256.1 -757 -2255 -757H6940C6941.1 -757 6942 -756.105 6942 -755V2939C6942 2940.1 6941.1 2941 6940 2941H-2255C-2256.1 2941 -2257 2940.1 -2257 2939V-755Z" fill="#1E1E1E"/>
<g id="--" clip-path="url(#clip0_0_1)">
<rect width="1440" height="1110" transform="translate(-25 -18)" fill="#F7F7F7"/>
<path id="Rectangle" d="M-25 -18H1415V49H-25V-18Z" fill="#242B4D"/>
<g id="Frame">
<g id="Group 1853">
<g id="R">
<g id="Group 1763">
<path id="Vector" d="M52.0249 19.9952V12.7464L51.732 12.6331L48.4776 17.4175L45.1578 12.5218L44.9626 12.5609V20.0059H43.0098V8.82811L45.0446 8.73047C46.1762 10.4489 47.2903 12.1342 48.5049 13.9845L51.8833 8.82225H54.0206V19.9952H52.0249Z" fill="white"/>
<path id="Vector_2" d="M118.495 20.2901C115.123 20.2901 112.617 17.8208 112.609 14.4932C112.602 11.1188 115.204 8.54598 118.607 8.56258C121.865 8.57918 124.532 11.2408 124.503 14.4454C124.473 17.7573 121.869 20.2901 118.495 20.2901ZM122.21 14.5294C122.23 12.1919 120.726 10.5622 118.537 10.5476C116.369 10.533 114.82 12.1235 114.806 14.3692C114.79 16.6462 116.287 18.2846 118.407 18.3139C120.723 18.3481 122.191 16.8864 122.21 14.5294Z" fill="white"/>
<path id="Vector_3" d="M90.4769 20.045H88.075L84.225 14.6289C84.2709 14.5176 84.3168 14.4063 84.3637 14.295C84.8802 14.295 85.3967 14.3057 85.9132 14.295C87.2597 14.2598 88.0066 13.6027 87.9998 12.474C87.993 11.3638 87.3056 10.7487 85.9718 10.7106C85.0276 10.6833 84.0825 10.7047 82.9645 10.7047V20.003H80.9258V8.625C83.2428 8.75681 85.4631 8.7656 87.6473 9.04778C89.0807 9.2333 90.017 10.5212 90.1576 12.0424C90.2914 13.4924 89.7212 14.6445 88.4782 15.4334C88.24 15.5838 87.9744 15.6932 87.5946 15.8855L90.4769 20.045Z" fill="white"/>
<path id="Vector_4" d="M73.3809 20.0235H71.2328L70.0191 17.4722H64.8569C64.4422 18.3392 64.0364 19.1854 63.6393 20.0108H61.5742C63.2527 16.1804 64.8559 12.5033 66.4748 8.79492H68.4598C70.0728 12.4711 71.6946 16.1736 73.3809 20.0235ZM69.2985 15.5467C68.6639 14.1202 68.1054 12.8626 67.5459 11.606L67.2881 11.6528L65.6224 15.5467H69.2985Z" fill="white"/>
<path id="Vector_5" d="M100.131 18.2553H106.034V20.0128H98.2227V8.85352H100.133L100.131 18.2553Z" fill="white"/>
</g>
</g>
<g id="Group 1832">
<path id="Vector_6" d="M9.5875 16.1458C9.32621 13.3348 9.51741 10.7425 9.45571 8.15544L9.66291 7.98633L16.7041 12.0291L9.5875 16.1458Z" fill="#0CABDF"/>
<path id="Vector_7" d="M18.1775 12.877L25.3101 16.9906L18.1775 21.0935V12.877Z" fill="#0CABDF"/>
<path id="Vector_8" d="M25.7541 7.90625V16.1457L18.6094 12.0465L25.7541 7.90625Z" fill="#0CABDF"/>
<path id="Vector_9" d="M17.1294 12.8691V21.0865L10.268 17.1351L10.2383 16.8761L17.1294 12.8691Z" fill="#0CABDF"/>
<path id="Vector_10" d="M26.7931 26.0308V17.8516L33.9081 21.9423L26.7931 26.0308Z" fill="#0CABDF"/>
<path id="Vector_11" d="M26.7949 16.1176V7.94141L33.9054 12.0383L26.7949 16.1176Z" fill="#0CABDF"/>
<path id="Vector_12" d="M1 21.1064V12.8792L8.09448 16.9829L1 21.1064Z" fill="#0CABDF"/>
<path id="Vector_13" d="M1.02539 3L8.10235 7.07401L1.02539 11.1709V3Z" fill="#0CABDF"/>
<path id="Vector_14" d="M8.5116 7.94141V16.126L1.44531 12.0375L8.5116 7.94141Z" fill="#0CABDF"/>
<path id="Vector_15" d="M27.2031 16.989L34.2763 12.9043V21.0752L27.2031 16.989Z" fill="#0CABDF"/>
<path id="Vector_16" d="M1.42188 21.932L8.46303 17.8945V25.9968L1.42188 21.932Z" fill="#0CABDF"/>
<path id="Vector_17" d="M34.2724 3.0022V11.1578L27.2091 7.07849L34.2724 3.0022Z" fill="#0CABDF"/>
</g>
</g>
</g>
</g>
<path d="M-2255 -756H6940V-758H-2255V-756ZM6941 -755V2939H6943V-755H6941ZM6940 2940H-2255V2942H6940V2940ZM-2256 2939V-755H-2258V2939H-2256ZM-2255 2940C-2255.55 2940 -2256 2939.55 -2256 2939H-2258C-2258 2940.66 -2256.66 2942 -2255 2942V2940ZM6941 2939C6941 2939.55 6940.55 2940 6940 2940V2942C6941.66 2942 6943 2940.66 6943 2939H6941ZM6940 -756C6940.55 -756 6941 -755.552 6941 -755H6943C6943 -756.657 6941.66 -758 6940 -758V-756ZM-2255 -758C-2256.66 -758 -2258 -756.657 -2258 -755H-2256C-2256 -755.552 -2255.55 -756 -2255 -756V-758Z" fill="white" fill-opacity="0.1"/>
</g>
<defs>
<clipPath id="clip0_0_1">
<rect width="1440" height="1110" fill="white" transform="translate(-25 -18)"/>
</clipPath>
</defs>
</svg>
