<svg width="24" height="24" viewBox="0 0 24 24" fill="none" xmlns="http://www.w3.org/2000/svg">
<g id="IMAGE">
<path id="Vector" fill-rule="evenodd" clip-rule="evenodd" d="M11.6191 5.45478C9.32386 5.45478 7.46321 7.40876 7.46321 9.81912V13.456C7.46321 13.986 7.3283 14.4829 7.09256 14.9108H16.1456C15.9098 14.4829 15.7749 13.986 15.7749 13.456V9.81912C15.7749 7.40876 13.9143 5.45478 11.6191 5.45478ZM18.5455 14.9108C17.7804 14.9108 17.1602 14.2595 17.1602 13.456V9.81912C17.1602 6.60531 14.6794 4 11.6191 4C8.55878 4 6.07792 6.60531 6.07792 9.81912V13.456C6.07792 14.2595 5.45771 14.9108 4.69265 14.9108C4.31011 14.9108 4 15.2365 4 15.6382C4 16.04 4.31011 16.3656 4.69265 16.3656H18.5455C18.928 16.3656 19.2381 16.04 19.2381 15.6382C19.2381 15.2365 18.928 14.9108 18.5455 14.9108ZM10.0732 17.9186C10.4041 17.717 10.828 17.8353 11.0199 18.1828C11.1438 18.4071 11.3721 18.5452 11.6191 18.5452C11.866 18.5452 12.0943 18.4071 12.2182 18.1828C12.4101 17.8353 12.834 17.717 13.1649 17.9186C13.4958 18.1202 13.6084 18.5653 13.4165 18.9128C13.0447 19.5857 12.3599 20 11.6191 20C10.8782 20 10.1934 19.5857 9.82166 18.9128C9.62972 18.5653 9.74235 18.1202 10.0732 17.9186Z" fill="white"/>
</g>
</svg>
